<svg xmlns="http://www.w3.org/2000/svg" xmlns:xlink="http://www.w3.org/1999/xlink" width="125.324" height="30.004" viewBox="0 0 125.324 30.004">
  <defs>
    <clipPath id="clip-path">
      <rect id="Rectangle_1529" data-name="Rectangle 1529" width="125.324" height="30.004" fill="none"/>
    </clipPath>
  </defs>
  <g id="Group_1116" data-name="Group 1116" clip-path="url(#clip-path)">
    <path id="Path_3388" data-name="Path 3388" d="M14.214.02A15.007,15.007,0,0,0,1.789,22.114l3.439-3.442a1.8,1.8,0,0,0,.505-1.647A9.479,9.479,0,0,1,14.111,5.56a9.453,9.453,0,0,1,8.1,3.307.84.84,0,0,1-.65,1.376H14.534a.855.855,0,0,0-.741.428l-2.252,3.9a.857.857,0,0,0,0,.856l2.251,3.9a.855.855,0,0,0,.741.428h7.028a.842.842,0,0,1,.64,1.386,9.462,9.462,0,0,1-9.293,3.105,1.808,1.808,0,0,0-1.674.495L7.811,28.174A15,15,0,1,0,14.214.02" transform="translate(0 -0.001)" fill="#e43e30"/>
    <path id="Path_3389" data-name="Path 3389" d="M152.858,60.854a1.332,1.332,0,0,0-1.209-.768h-2.913a1.332,1.332,0,0,0-1.209.768L142.7,71.121H133.9l-.868-.869V61.423a1.336,1.336,0,1,0-2.672,0V70.8a1.347,1.347,0,0,0,.391.945L132.4,73.4a1.345,1.345,0,0,0,.945.391H143.46a1.334,1.334,0,0,0,1.264-.7c.012-.021.024-.042.034-.064l4.826-10.271H150.8l3.931,8.365h-6.727a1.337,1.337,0,0,0,0,2.674h8.831a1.337,1.337,0,0,0,1.209-1.906Z" transform="translate(-95.014 -43.795)" fill="#00416c"/>
    <path id="Path_3390" data-name="Path 3390" d="M310.535,66.275a1.335,1.335,0,0,0-1.157-.668H302.46l-.821-1.423.821-1.423h6.666a1.337,1.337,0,0,0,0-2.674h-7.438a1.335,1.335,0,0,0-1.157.668l-1.592,2.76a1.338,1.338,0,0,0,0,1.337l1.592,2.76a1.336,1.336,0,0,0,1.157.668h6.918l.821,1.423-.821,1.423H300.2a1.337,1.337,0,0,0,0,2.674h9.182a1.336,1.336,0,0,0,1.157-.668l1.592-2.76a1.338,1.338,0,0,0,0-1.337Z" transform="translate(-217.757 -43.795)" fill="#00416c"/>
    <path id="Path_3391" data-name="Path 3391" d="M249.5,71.124h-7.709V68.279H249.5l.821,1.423Zm3.52-7.61-1.592-2.76a1.335,1.335,0,0,0-1.157-.669h-5.706a1.337,1.337,0,0,0,0,2.674H249.5l.821,1.423-.821,1.423h-7.709V61.423a1.336,1.336,0,1,0-2.671,0V72.461a1.336,1.336,0,0,0,1.336,1.337h9.816a1.335,1.335,0,0,0,1.157-.669l1.592-2.76a1.337,1.337,0,0,0,0-1.337l-1.206-2.091,1.206-2.091a1.338,1.338,0,0,0,0-1.337" transform="translate(-174.289 -43.795)" fill="#00416c"/>
    <path id="Path_3392" data-name="Path 3392" d="M301.462,0a1.337,1.337,0,0,0-1.336,1.337v9.7h-.788L293.641.693A1.338,1.338,0,0,0,292.471,0h-2.912a1.336,1.336,0,0,0-1.336,1.337v11.27a1.336,1.336,0,1,0,2.672,0V2.675h.788l5.7,10.347a1.338,1.338,0,0,0,1.17.692h2.913a1.336,1.336,0,0,0,1.336-1.337V1.338A1.336,1.336,0,0,0,301.462,0" transform="translate(-210.076 -0.001)" fill="#00416c"/>
    <path id="Path_3393" data-name="Path 3393" d="M377.1,0a1.336,1.336,0,0,0-1.336,1.337V6.184H366.27V1.338a1.336,1.336,0,1,0-2.672,0v9.7h-11.04l-2.413-4.182,2.413-4.183h8.271a1.337,1.337,0,0,0,0-2.674h-9.042a1.336,1.336,0,0,0-1.157.668l-3.184,5.519a1.338,1.338,0,0,0,0,1.337l3.184,5.519a1.336,1.336,0,0,0,1.157.668h13.148a1.336,1.336,0,0,0,1.336-1.337V8.858h9.493v3.518a1.336,1.336,0,1,0,2.672,0V1.338A1.336,1.336,0,0,0,377.1,0" transform="translate(-253.111 -0.001)" fill="#00416c"/>
    <path id="Path_3394" data-name="Path 3394" d="M244.739,0A1.336,1.336,0,0,0,243.4,1.337v8.832l-.868.869H236.8l-.868-.869V1.337a1.336,1.336,0,1,0-2.672,0v9.386a1.348,1.348,0,0,0,.391.945l1.651,1.652a1.345,1.345,0,0,0,.945.392h6.837a1.345,1.345,0,0,0,.945-.392l1.651-1.652a1.348,1.348,0,0,0,.391-.945V1.337A1.336,1.336,0,0,0,244.739,0" transform="translate(-170.018)" fill="#00416c"/>
    <path id="Path_3395" data-name="Path 3395" d="M178.492,13.713a1.336,1.336,0,0,0,1.336-1.337v-9.7h7l1.012,1.755-1.012,1.755h-4.273a1.337,1.337,0,0,0,0,2.674h3.463l2.549,4.419a1.336,1.336,0,1,0,2.314-1.337l-2.145-3.718c.007-.011.014-.021.02-.032L190.539,5.1a1.338,1.338,0,0,0,0-1.337L188.755.669A1.336,1.336,0,0,0,187.6,0h-9.106a1.336,1.336,0,0,0-1.336,1.337V12.376a1.336,1.336,0,0,0,1.336,1.337" transform="translate(-129.123 -0.001)" fill="#00416c"/>
    <path id="Path_3396" data-name="Path 3396" d="M131.647,11.038h-8.037L121.2,6.856l2.413-4.182h7.91a1.337,1.337,0,0,0,0-2.674h-8.681a1.336,1.336,0,0,0-1.157.668L118.5,6.188a1.338,1.338,0,0,0,0,1.337l3.184,5.519a1.336,1.336,0,0,0,1.157.668h8.809a1.337,1.337,0,0,0,0-2.674" transform="translate(-86.238)" fill="#00416c"/>
  </g>
</svg>
